<?xml version="1.0" standalone="no"?>
<!DOCTYPE svg PUBLIC "-//W3C//DTD SVG 20010904//EN"
 "http://www.w3.org/TR/2001/REC-SVG-20010904/DTD/svg10.dtd">
<svg version="1.0" xmlns="http://www.w3.org/2000/svg"
 width="500.000000pt" height="500.000000pt" viewBox="0 0 500.000000 500.000000"
 preserveAspectRatio="xMidYMid meet">
<metadata>
Created by potrace 1.14, written by Peter Selinger 2001-2017
</metadata>
<g transform="translate(0.000000,500.000000) scale(0.100000,-0.100000)"
fill="#000000" stroke="none">
<path d="M1875 4948 c-24 -23 -38 -45 -42 -71 -5 -31 -23 -55 -97 -130 -143
-143 -201 -278 -213 -492 -5 -99 -2 -142 23 -276 l6 -36 -73 -40 c-41 -23
-109 -66 -152 -97 -43 -31 -82 -56 -87 -56 -14 0 -88 97 -116 151 -40 79 -71
207 -99 399 -57 403 -107 530 -205 530 -80 0 -116 -56 -245 -376 -189 -467
-237 -752 -170 -1008 37 -143 136 -320 243 -434 l50 -54 -14 -51 c-42 -154
-44 -200 -44 -1234 l0 -992 68 -54 c285 -230 683 -426 1057 -522 879 -225
1806 -36 2515 513 l75 58 3 959 c3 988 0 1102 -37 1245 l-18 71 55 57 c108
113 209 291 247 438 67 256 19 541 -170 1008 -129 320 -165 376 -244 376 -97
0 -146 -121 -202 -504 -46 -312 -86 -432 -182 -541 l-43 -48 -61 47 c-73 55
-210 137 -311 185 -40 19 -72 39 -72 43 0 5 17 43 39 86 128 255 134 498 16
630 -70 78 -136 106 -261 110 -118 5 -216 -16 -346 -72 l-80 -35 -46 35 c-59
46 -161 97 -259 131 -67 23 -95 27 -200 27 -68 1 -123 4 -123 9 0 17 -67 47
-108 47 -34 0 -49 -6 -77 -32z m640 -176 c47 -24 105 -64 105 -72 0 -5 -21
-20 -46 -35 -130 -76 -337 -270 -453 -424 l-56 -74 -13 54 c-38 160 39 416
151 502 97 74 225 94 312 49z m-1668 -24 c33 -36 93 -237 80 -271 -9 -24 -202
-47 -263 -31 -22 6 -21 7 13 92 63 156 108 232 138 232 6 0 21 -10 32 -22z
m3380 0 c29 -32 60 -96 136 -283 218 -535 257 -826 146 -1105 -60 -149 -190
-328 -263 -361 -113 -51 -323 0 -437 107 l-25 24 56 58 c30 31 67 72 80 89
l25 33 58 -39 c58 -38 153 -75 225 -87 37 -6 38 -5 96 67 71 90 112 168 137
267 33 128 35 124 -78 151 -54 13 -132 36 -174 52 l-75 29 3 193 c1 105 3 193
3 193 0 1 30 -7 67 -17 81 -23 223 -36 223 -22 0 13 -75 279 -89 316 -10 25
-15 27 -61 27 -80 0 -191 21 -197 38 -14 35 48 234 84 274 21 24 35 23 60 -4z
m-3262 -468 c38 -296 95 -440 229 -574 44 -45 102 -100 128 -122 74 -63 82
-142 29 -267 -87 -202 -276 -337 -472 -337 -100 0 -140 20 -209 104 -33 39
-57 72 -55 74 2 2 39 8 82 13 140 18 261 58 326 109 l26 21 -66 97 c-75 110
-108 177 -128 264 -7 33 -16 62 -19 65 -2 3 -29 -4 -58 -15 -69 -25 -207 -59
-282 -68 l-59 -7 6 99 c5 94 22 188 53 300 l15 51 107 6 c59 3 137 13 173 22
64 16 67 18 72 52 12 70 70 264 77 256 4 -4 15 -69 25 -143z m1155 -545 c92
-48 102 -186 18 -246 -124 -89 -282 55 -210 190 34 63 126 90 192 56z m310 -5
c27 -27 35 -65 20 -101 -36 -85 -170 -57 -170 36 0 51 36 85 90 85 26 0 47 -7
60 -20z m259 -483 c234 -83 386 -288 399 -537 12 -242 -123 -468 -340 -569
-105 -50 -184 -65 -296 -59 -246 15 -457 177 -533 410 -35 105 -35 282 0 382
64 185 229 338 421 391 88 24 256 15 349 -18z m-574 -1711 c39 -9 80 -16 92
-16 30 0 32 -8 18 -63 -24 -93 -98 -134 -157 -87 -28 21 -62 94 -74 154 -8 44
-24 43 121 12z m889 -13 c-37 -207 -189 -236 -233 -44 l-9 41 32 1 c17 0 67 9
111 18 113 26 107 27 99 -16z m272 -704 c37 -35 49 -87 31 -132 -17 -39 -68
-77 -105 -77 -40 0 -90 28 -106 59 -31 59 -12 136 42 166 38 21 107 14 138
-16z m-224 -266 c17 -10 45 -35 61 -56 42 -51 50 -143 18 -204 -56 -111 -191
-144 -291 -72 -128 93 -94 301 57 349 39 13 119 4 155 -17z m453 -18 c17 -17
25 -35 25 -60 0 -48 -13 -70 -49 -85 -62 -25 -121 13 -121 80 0 54 34 90 85
90 25 0 44 -8 60 -25z"/>
<path d="M2410 2981 c-83 -26 -159 -90 -201 -171 -20 -37 -24 -60 -24 -130 0
-73 4 -92 27 -135 32 -60 87 -115 148 -146 69 -35 185 -34 262 4 65 32 121 90
151 156 25 54 31 191 10 213 -10 9 -13 9 -13 0 0 -23 -62 -81 -105 -98 -165
-63 -310 126 -211 276 l26 40 -22 -1 c-13 0 -34 -4 -48 -8z"/>
</g>
</svg>
