<svg width="196" height="60" xmlns="http://www.w3.org/2000/svg" fill="none">
 <defs>
  <linearGradient id="paint0_linear_534_14" x1="0.74927" y1="0.1613" x2="0.60118" y2="0.96171">
   <stop stop-color="#FF496A"/>
   <stop offset="1" stop-color="#E42648"/>
  </linearGradient>
  <linearGradient id="paint1_linear_534_14" x1="0.27082" y1="0.85176" x2="0.56349" y2="0">
   <stop offset="0.00181" stop-color="#1158F1"/>
   <stop offset="1" stop-color="#119BED"/>
  </linearGradient>
 </defs>
 <g>
  <title>Layer 1</title>
  <path d="m31.0769,57.1537c14.9541,0 27.0769,-12.1227 27.0769,-27.0768c0,-14.9542 -12.1228,-27.0769 -27.0769,-27.0769c-14.9542,0 -27.0769,12.1227 -27.0769,27.0769c0,14.9541 12.1227,27.0768 27.0769,27.0768z" fill="white" id="svg_1"/>
  <path d="m52.0498,13.1865c-1.8779,0.3712 -3.6684,0.8953 -5.1424,1.2228c-3.3628,0.7534 -6.5072,3.3301 -7.195,8.0467c-0.6114,4.2144 0.8079,6.0268 0.1856,10.929c-1.0918,8.5598 -9.3022,11.5076 -13.1345,13.2982c-2.2164,1.0263 -7.599,3.3846 -11.7479,5.1861c4.4983,3.3191 10.0447,5.2844 16.0606,5.2844c14.9578,0 27.0769,-12.1191 27.0769,-27.0769c0,-6.3762 -2.2055,-12.2392 -5.8958,-16.8575c-0.0655,-0.011 -0.131,-0.0219 -0.2075,-0.0328z" fill="url(#paint0_linear_534_14)" id="svg_2"/>
  <path d="m28.0307,26.1027c2.0854,-4.5092 1.3321,-4.5201 2.9152,-8.7563c1.998,-5.3717 8.2104,-3.8432 9.9245,-3.6139c2.8278,0.3821 3.5703,-0.6223 9.5315,-1.5831c0.2948,-0.0437 0.5787,-0.0874 0.8626,-0.1201c-4.9569,-5.53551 -12.1628,-9.0293 -20.1876,-9.0293c-10.7762,0 -20.0784,6.28882 -24.43472,15.4054c8.93102,2.2164 18.57172,7.0313 21.38852,7.6973zm-5.9176,-18.38608c0.7861,0.12009 4.6075,4.86948 5.3281,17.06498c0,0 -4.9132,-1.1792 -5.9722,-3.7122c-0.8735,-2.0853 0.262,-4.8258 0.6441,-13.35278zm30.1012,5.44808c0.011,0.0219 0.0328,0.0328 0.0437,0.0546c-0.0655,-0.0109 -0.1419,-0.0109 -0.2074,-0.0218c0.0546,-0.0218 0.1092,-0.0218 0.1637,-0.0328zm-48.2143,16.9122c0,-2.1618 0.25112,-4.2581 0.73151,-6.267c0.98263,0.8188 2.03077,1.725 3.14442,2.7623c7.05307,6.5399 18.52797,11.7042 22.70967,6.9002c0.0109,0.0109 0.0218,0.0109 0.0218,0.0218c-0.7643,1.0045 -3.6794,4.1817 -9.2476,3.199l-8.8,13.1345c-5.26253,-4.935 -8.5598,-11.9553 -8.5598,-19.7508z" fill="url(#paint1_linear_534_14)" id="svg_3"/>
  <path d="m163.001,25.5967c-0.347,-0.8215 -0.925,-1.6429 -1.618,-2.1123c-0.809,-0.5868 -1.734,-1.0562 -3.005,-1.4082c-1.618,-0.4694 -3.93,-0.5868 -6.588,-0.4694c-0.693,0 -1.387,0.1173 -2.08,0.1173c-0.694,0.1174 -1.387,0.1174 -2.081,0.2347c-0.577,0.1174 -1.155,0.1174 -1.618,0.2347l0,4.4593c0.463,-0.1173 1.041,-0.2347 1.503,-0.352c0.693,-0.1174 1.387,-0.2347 2.08,-0.3521c0.694,-0.1173 1.387,-0.1173 2.08,-0.2347c1.965,-0.1173 3.583,-0.1173 4.508,0.1174c0.693,0.1173 1.271,0.352 1.618,0.5867c0.347,0.2347 0.578,0.5868 0.693,1.0562c0.116,0.3521 0.232,0.7041 0.232,1.1735l0,0.3521l-0.347,-0.1174c-1.503,-0.4694 -3.352,-0.5867 -5.432,-0.5867c-1.734,0 -3.121,0.1173 -4.276,0.352c-1.156,0.2347 -2.081,0.5868 -2.774,1.0562c-0.694,0.4694 -1.156,0.9388 -1.387,1.5256c-0.231,0.5867 -0.347,1.1735 -0.347,1.8776l0,0.352c0,0.7041 0.116,1.4083 0.462,1.995c0.232,0.5868 0.694,1.1735 1.387,1.7603c0.694,0.4694 1.618,0.9388 2.774,1.1735c1.156,0.3521 2.658,0.4694 4.392,0.4694c1.502,0 2.889,-0.1173 4.045,-0.4694c1.156,-0.2347 1.387,-0.3521 2.427,-0.8215c0.347,-0.2347 1.271,-0.352 1.849,-0.1173l1.041,0.5867l1.04,0l0,-9.8575c0,-0.5867 -0.231,-1.6429 -0.578,-2.5817zm-4.276,9.1534l-0.232,0c-1.502,0.4694 -3.12,0.7041 -4.969,0.7041c-1.04,0 -1.965,0 -2.543,-0.1173c-0.578,-0.1174 -1.04,-0.1174 -1.387,-0.3521c-0.347,-0.1173 -0.578,-0.3521 -0.693,-0.5868c-0.116,-0.2347 -0.116,-0.4694 -0.116,-0.7041c0,-0.2347 0,-0.352 0.116,-0.5867c0.115,-0.2347 0.346,-0.4694 0.578,-0.5868c0.231,-0.1173 0.693,-0.352 1.271,-0.352c0.578,-0.1174 1.387,-0.1174 2.311,-0.1174c1.041,0 1.965,0 2.89,0.1174c0.809,0.1173 1.618,0.2347 2.427,0.4694l0.231,0l0,2.1123l0.116,0z" fill="#122444" id="svg_4"/>
  <path d="m82.2134,23.7191c-0.6934,-0.7041 -1.618,-1.2908 -2.7737,-1.7602c-1.1558,-0.4694 -2.6583,-0.7041 -4.5074,-0.7041c-0.9246,0 -1.8492,0.1173 -2.6582,0.2347c-0.8091,0.1174 -1.6181,0.3521 -2.4271,0.5868l-0.3467,0.1173l0,-6.337l-3.814,-2.2296l-0.9246,0l0,17.1332c0,1.1735 0.1156,2.2297 0.4623,3.1685c0.2312,0.9388 0.809,1.7603 1.5025,2.5817c0.6934,0.7041 1.618,1.2909 2.7738,1.7603c1.1557,0.4694 2.6582,0.7041 4.5074,0.7041l0.9246,0c1.8491,0 3.3516,-0.2347 4.5074,-0.7041c1.1557,-0.352 2.1959,-0.9388 2.8893,-1.7603c0.6935,-0.7041 1.1558,-1.5255 1.5025,-2.5817c0.2311,-1.0562 0.4623,-2.1123 0.4623,-3.1685l0,-1.2908c0,-1.1736 -0.1156,-2.2297 -0.4623,-3.1685c-0.3467,-1.0562 -0.9246,-1.8777 -1.6181,-2.5818zm-2.8893,7.9799c0,0.5868 -0.2312,1.0562 -0.5779,1.5256c-0.3467,0.3521 -0.809,0.7041 -1.5025,1.0562c-0.6934,0.2347 -1.618,0.352 -2.7737,0.352c-1.1558,0 -2.0804,-0.1173 -2.7738,-0.352c-0.6935,-0.2347 -1.1558,-0.5868 -1.5025,-1.0562c-0.3467,-0.4694 -0.4623,-0.9388 -0.5779,-1.5256c0,-0.4694 -0.1155,-1.0561 -0.1155,-1.6429l0,-3.6379l0.1155,0c0.6935,-0.2347 1.5025,-0.4694 2.3115,-0.5867c0.8091,-0.1174 1.6181,-0.2347 2.6582,-0.2347c1.1558,0 2.0804,0.1173 2.6582,0.352c0.5779,0.2347 1.1558,0.5868 1.3869,0.9388c0.3468,0.4694 0.4623,0.9388 0.5779,1.5256c0,0.4694 0.1156,1.0562 0.1156,1.6429c0,0.5868 0,1.1735 0,1.6429z" fill="#122444" id="svg_5"/>
  <path d="m89.9578,13.627l-0.2312,0c-1.0401,0 -1.7336,0.2347 -2.0803,0.5867c-0.3467,0.4694 -0.5779,0.9388 -0.5779,1.6429l0,0.3521c0,0.5867 0.2312,1.1735 0.5779,1.6429c0.3467,0.4694 1.0402,0.5868 2.0803,0.5868l0.2312,0c1.0402,0 1.7336,-0.2347 2.0803,-0.5868c0.3468,-0.4694 0.4623,-0.9388 0.4623,-1.6429l0,-0.3521c0,-0.5867 -0.2311,-1.1735 -0.5778,-1.6429c-0.2312,-0.352 -0.9246,-0.5867 -1.9648,-0.5867z" fill="#122444" id="svg_6"/>
  <path d="m87.415,21.959l0,16.3118l4.8541,0l0,-14.0822l-3.814,-2.2296l-1.0401,0z" fill="#122444" id="svg_7"/>
  <path d="m111.223,29.8215c-0.462,-0.3521 -1.04,-0.7041 -1.618,-0.9388c-0.578,-0.2347 -1.271,-0.3521 -1.964,-0.4694c-0.578,-0.1174 -1.272,-0.2347 -1.85,-0.2347c-0.578,0 -1.155,0 -1.502,-0.1174c-1.387,0 -2.312,-0.1173 -2.889,-0.2347c-0.925,-0.2347 -1.041,-0.7041 -1.041,-1.1735c0,-0.2347 0,-0.352 0.116,-0.4694c0.116,-0.1174 0.231,-0.3521 0.578,-0.4694c0.231,-0.1174 0.693,-0.2347 1.156,-0.2347c0.462,-0.1174 1.155,-0.1174 2.08,-0.1174c1.387,0 2.774,0.1174 4.045,0.2347c1.156,0.1174 2.427,0.3521 3.698,0.5868l0,-4.1073c-1.04,-0.2347 -2.08,-0.4694 -3.236,-0.5867c-1.155,-0.1174 -2.427,-0.2347 -3.583,-0.2347l-1.155,0c-1.734,0 -3.121,0.1173 -4.2766,0.4694c-1.0401,0.2347 -1.9647,0.7041 -2.6582,1.1735c-0.6934,0.4694 -1.1557,1.0561 -1.3869,1.6429c-0.2311,0.5867 -0.3467,1.2908 -0.3467,1.995l0,0.352c0,0.8215 0.1156,1.5256 0.4623,2.1123c0.3467,0.5868 0.6934,1.0562 1.1557,1.4083c0.4623,0.352 1.0402,0.7041 1.6181,0.9388c0.5779,0.2347 1.2713,0.352 1.8493,0.4694c0.693,0.1173 1.271,0.2347 1.849,0.2347c0.578,0 1.156,0.1173 1.618,0.1173c1.387,0 2.312,0.1174 2.89,0.2347c0.924,0.1174 1.155,0.7041 1.155,1.1735c0,0.1174 0,0.3521 -0.115,0.4694c-0.116,0.1174 -0.231,0.3521 -0.578,0.4695c-0.231,0.1173 -0.694,0.2347 -1.156,0.2347c-0.462,0.1173 -1.156,0.1173 -1.965,0.1173c-1.387,0 -3.005,-0.1173 -4.5071,-0.2347c-1.3869,-0.1173 -2.8894,-0.352 -4.1607,-0.7041l0,4.1073c1.2713,0.2347 2.427,0.4694 3.6984,0.5868c1.2714,0.1173 2.7734,0.2347 4.1604,0.2347l0.925,0c1.733,0 3.12,-0.1174 4.161,-0.4694c1.155,-0.2348 1.964,-0.7042 2.658,-1.1736c0.693,-0.4694 1.04,-1.0561 1.387,-1.6429c0.231,-0.5867 0.462,-1.2908 0.462,-1.995l0,-0.352c0,-0.8215 -0.116,-1.5256 -0.462,-2.1123c-0.463,-0.4694 -0.809,-0.9388 -1.272,-1.2909z" fill="#122444" id="svg_8"/>
  <path d="m134.8,32.6379l-4.161,-10.6789l-3.698,0l-4.045,10.6789l-4.161,-10.6789l-4.276,0l0,1.0561l6.241,15.2557l4.276,0l3.814,-9.8575l3.814,9.8575l4.276,0l6.357,-15.2557l0,-1.0561l-4.392,0l-4.045,10.6789z" fill="#122444" id="svg_9"/>
  <path d="m185.422,26.5354c-0.231,-0.9388 -0.809,-1.7603 -1.503,-2.5818c-0.693,-0.7041 -1.618,-1.2908 -2.889,-1.7602c-1.156,-0.4694 -2.658,-0.7041 -4.507,-0.7041l-0.81,0c-1.849,0 -3.351,0.2347 -4.507,0.7041c-1.156,0.352 -2.08,0.9388 -2.774,1.7602c-0.693,0.7041 -1.155,1.5256 -1.502,2.5818c-0.231,1.0561 -0.462,2.1123 -0.462,3.1685l0,17.1333l1.04,0l3.814,-2.2297l0,-6.337l0.346,0.1174c0.809,0.2347 1.503,0.4694 2.427,0.5867c0.809,0.1174 1.734,0.2347 2.659,0.2347c1.849,0 3.351,-0.2347 4.507,-0.7041c1.156,-0.4694 2.08,-0.9388 2.774,-1.7603c0.693,-0.7041 1.156,-1.6429 1.502,-2.5817c0.231,-0.9388 0.463,-1.995 0.463,-3.1685l0,-1.2908c-0.116,-1.0562 -0.232,-2.1124 -0.578,-3.1685zm-4.392,5.5155c0,0.5867 -0.231,1.0562 -0.578,1.5256c-0.347,0.4694 -0.809,0.7041 -1.387,0.9388c-0.578,0.2347 -1.502,0.352 -2.658,0.352c-0.925,0 -1.849,-0.1173 -2.658,-0.2347c-0.809,-0.1173 -1.618,-0.352 -2.312,-0.5867l-0.115,0l0,-3.6379c0,-0.5868 0,-1.0562 0.115,-1.643c0,-0.5867 0.231,-1.0561 0.578,-1.5255c0.347,-0.4694 0.809,-0.7041 1.503,-1.0562c0.693,-0.2347 1.618,-0.352 2.773,-0.352c1.156,0 2.081,0.1173 2.774,0.352c0.694,0.2347 1.156,0.5868 1.503,1.0562c0.346,0.4694 0.577,0.9388 0.577,1.5255c0,0.4695 0.116,1.0562 0.116,1.643c-0.231,0.5867 -0.231,1.1735 -0.231,1.6429z" fill="#122444" id="svg_10"/>
 </g>
</svg>