<svg width="86" height="14" viewBox="0 0 86 14" fill="none" xmlns="http://www.w3.org/2000/svg">
<path d="M7.524 13.216C6.24 13.216 5.076 12.94 4.032 12.388C3 11.824 2.184 11.05 1.584 10.066C0.996 9.07 0.702 7.948 0.702 6.7C0.702 5.452 0.996 4.336 1.584 3.352C2.184 2.356 3 1.582 4.032 1.03C5.076 0.466 6.246 0.184 7.542 0.184C8.634 0.184 9.618 0.376 10.494 0.76C11.382 1.144 12.126 1.696 12.726 2.416L10.854 4.144C10.002 3.16 8.946 2.668 7.686 2.668C6.906 2.668 6.21 2.842 5.598 3.19C4.986 3.526 4.506 4 4.158 4.612C3.822 5.224 3.654 5.92 3.654 6.7C3.654 7.48 3.822 8.176 4.158 8.788C4.506 9.4 4.986 9.88 5.598 10.228C6.21 10.564 6.906 10.732 7.686 10.732C8.946 10.732 10.002 10.234 10.854 9.238L12.726 10.966C12.126 11.698 11.382 12.256 10.494 12.64C9.606 13.024 8.616 13.216 7.524 13.216ZM18.7712 13.144C17.7512 13.144 16.8332 12.934 16.0172 12.514C15.2132 12.082 14.5832 11.488 14.1272 10.732C13.6712 9.976 13.4432 9.118 13.4432 8.158C13.4432 7.198 13.6712 6.34 14.1272 5.584C14.5832 4.828 15.2132 4.24 16.0172 3.82C16.8332 3.388 17.7512 3.172 18.7712 3.172C19.7912 3.172 20.7032 3.388 21.5072 3.82C22.3112 4.24 22.9412 4.828 23.3972 5.584C23.8532 6.34 24.0812 7.198 24.0812 8.158C24.0812 9.118 23.8532 9.976 23.3972 10.732C22.9412 11.488 22.3112 12.082 21.5072 12.514C20.7032 12.934 19.7912 13.144 18.7712 13.144ZM18.7712 10.84C19.4912 10.84 20.0792 10.6 20.5352 10.12C21.0032 9.628 21.2372 8.974 21.2372 8.158C21.2372 7.342 21.0032 6.694 20.5352 6.214C20.0792 5.722 19.4912 5.476 18.7712 5.476C18.0512 5.476 17.4572 5.722 16.9892 6.214C16.5212 6.694 16.2872 7.342 16.2872 8.158C16.2872 8.974 16.5212 9.628 16.9892 10.12C17.4572 10.6 18.0512 10.84 18.7712 10.84ZM38.3601 3.172C39.5721 3.172 40.5321 3.532 41.2401 4.252C41.9601 4.96 42.3201 6.028 42.3201 7.456V13H39.5121V7.888C39.5121 7.12 39.3501 6.55 39.0261 6.178C38.7141 5.794 38.2641 5.602 37.6761 5.602C37.0161 5.602 36.4941 5.818 36.1101 6.25C35.7261 6.67 35.5341 7.3 35.5341 8.14V13H32.7261V7.888C32.7261 6.364 32.1141 5.602 30.8901 5.602C30.2421 5.602 29.7261 5.818 29.3421 6.25C28.9581 6.67 28.7661 7.3 28.7661 8.14V13H25.9581V3.316H28.6401V4.432C29.0001 4.024 29.4381 3.712 29.9541 3.496C30.4821 3.28 31.0581 3.172 31.6821 3.172C32.3661 3.172 32.9841 3.31 33.5361 3.586C34.0881 3.85 34.5321 4.24 34.8681 4.756C35.2641 4.252 35.7621 3.862 36.3621 3.586C36.9741 3.31 37.6401 3.172 38.3601 3.172ZM57.239 3.172C58.451 3.172 59.411 3.532 60.119 4.252C60.839 4.96 61.199 6.028 61.199 7.456V13H58.391V7.888C58.391 7.12 58.229 6.55 57.905 6.178C57.593 5.794 57.143 5.602 56.555 5.602C55.895 5.602 55.373 5.818 54.989 6.25C54.605 6.67 54.413 7.3 54.413 8.14V13H51.605V7.888C51.605 6.364 50.993 5.602 49.769 5.602C49.121 5.602 48.605 5.818 48.221 6.25C47.837 6.67 47.645 7.3 47.645 8.14V13H44.837V3.316H47.519V4.432C47.879 4.024 48.317 3.712 48.833 3.496C49.361 3.28 49.937 3.172 50.561 3.172C51.245 3.172 51.863 3.31 52.415 3.586C52.967 3.85 53.411 4.24 53.747 4.756C54.143 4.252 54.641 3.862 55.241 3.586C55.853 3.31 56.519 3.172 57.239 3.172ZM68.4294 13.144C67.4094 13.144 66.4914 12.934 65.6754 12.514C64.8714 12.082 64.2414 11.488 63.7854 10.732C63.3294 9.976 63.1014 9.118 63.1014 8.158C63.1014 7.198 63.3294 6.34 63.7854 5.584C64.2414 4.828 64.8714 4.24 65.6754 3.82C66.4914 3.388 67.4094 3.172 68.4294 3.172C69.4494 3.172 70.3614 3.388 71.1654 3.82C71.9694 4.24 72.5994 4.828 73.0554 5.584C73.5114 6.34 73.7394 7.198 73.7394 8.158C73.7394 9.118 73.5114 9.976 73.0554 10.732C72.5994 11.488 71.9694 12.082 71.1654 12.514C70.3614 12.934 69.4494 13.144 68.4294 13.144ZM68.4294 10.84C69.1494 10.84 69.7374 10.6 70.1934 10.12C70.6614 9.628 70.8954 8.974 70.8954 8.158C70.8954 7.342 70.6614 6.694 70.1934 6.214C69.7374 5.722 69.1494 5.476 68.4294 5.476C67.7094 5.476 67.1154 5.722 66.6474 6.214C66.1794 6.694 65.9454 7.342 65.9454 8.158C65.9454 8.974 66.1794 9.628 66.6474 10.12C67.1154 10.6 67.7094 10.84 68.4294 10.84ZM81.5023 3.172C82.7023 3.172 83.6683 3.532 84.4003 4.252C85.1443 4.972 85.5163 6.04 85.5163 7.456V13H82.7083V7.888C82.7083 7.12 82.5403 6.55 82.2043 6.178C81.8683 5.794 81.3823 5.602 80.7463 5.602C80.0383 5.602 79.4743 5.824 79.0543 6.268C78.6343 6.7 78.4243 7.348 78.4243 8.212V13H75.6163V3.316H78.2983V4.45C78.6703 4.042 79.1323 3.73 79.6843 3.514C80.2363 3.286 80.8423 3.172 81.5023 3.172Z" fill="url(#paint0_linear)"/>
<defs>
<linearGradient id="paint0_linear" x1="-21.2442" y1="-16.5" x2="132.776" y2="10.2255" gradientUnits="userSpaceOnUse">
<stop stop-color="#D2D2D2"/>
<stop offset="0.789842" stop-color="#3D453D"/>
</linearGradient>
</defs>
</svg>
