<svg width="101" height="18" viewBox="0 0 101 18" fill="none" xmlns="http://www.w3.org/2000/svg">
<path d="M0.494 1.4H3.41V11.624H9.728V14H0.494V1.4ZM20.575 9.194C20.575 9.23 20.557 9.482 20.521 9.95H13.195C13.327 10.55 13.639 11.024 14.131 11.372C14.623 11.72 15.235 11.894 15.967 11.894C16.471 11.894 16.915 11.822 17.299 11.678C17.695 11.522 18.061 11.282 18.397 10.958L19.891 12.578C18.979 13.622 17.647 14.144 15.895 14.144C14.803 14.144 13.837 13.934 12.997 13.514C12.157 13.082 11.509 12.488 11.053 11.732C10.597 10.976 10.369 10.118 10.369 9.158C10.369 8.21 10.591 7.358 11.035 6.602C11.491 5.834 12.109 5.24 12.889 4.82C13.681 4.388 14.563 4.172 15.535 4.172C16.483 4.172 17.341 4.376 18.109 4.784C18.877 5.192 19.477 5.78 19.909 6.548C20.353 7.304 20.575 8.186 20.575 9.194ZM15.553 6.296C14.917 6.296 14.383 6.476 13.951 6.836C13.519 7.196 13.255 7.688 13.159 8.312H17.929C17.833 7.7 17.569 7.214 17.137 6.854C16.705 6.482 16.177 6.296 15.553 6.296ZM32.4344 4.316V12.38C32.4344 14.156 31.9724 15.476 31.0484 16.34C30.1244 17.204 28.7744 17.636 26.9984 17.636C26.0624 17.636 25.1744 17.522 24.3344 17.294C23.4944 17.066 22.7984 16.736 22.2464 16.304L23.3624 14.288C23.7704 14.624 24.2864 14.888 24.9104 15.08C25.5344 15.284 26.1584 15.386 26.7824 15.386C27.7544 15.386 28.4684 15.164 28.9244 14.72C29.3924 14.288 29.6264 13.628 29.6264 12.74V12.326C28.8944 13.13 27.8744 13.532 26.5664 13.532C25.6784 13.532 24.8624 13.34 24.1184 12.956C23.3864 12.56 22.8044 12.008 22.3724 11.3C21.9404 10.592 21.7244 9.776 21.7244 8.852C21.7244 7.928 21.9404 7.112 22.3724 6.404C22.8044 5.696 23.3864 5.15 24.1184 4.766C24.8624 4.37 25.6784 4.172 26.5664 4.172C27.9704 4.172 29.0384 4.634 29.7704 5.558V4.316H32.4344ZM27.1244 11.228C27.8684 11.228 28.4744 11.012 28.9424 10.58C29.4224 10.136 29.6624 9.56 29.6624 8.852C29.6624 8.144 29.4224 7.574 28.9424 7.142C28.4744 6.698 27.8684 6.476 27.1244 6.476C26.3804 6.476 25.7684 6.698 25.2884 7.142C24.8084 7.574 24.5684 8.144 24.5684 8.852C24.5684 9.56 24.8084 10.136 25.2884 10.58C25.7684 11.012 26.3804 11.228 27.1244 11.228ZM44.534 9.194C44.534 9.23 44.516 9.482 44.48 9.95H37.154C37.286 10.55 37.598 11.024 38.09 11.372C38.582 11.72 39.194 11.894 39.926 11.894C40.43 11.894 40.874 11.822 41.258 11.678C41.654 11.522 42.02 11.282 42.356 10.958L43.85 12.578C42.938 13.622 41.606 14.144 39.854 14.144C38.762 14.144 37.796 13.934 36.956 13.514C36.116 13.082 35.468 12.488 35.012 11.732C34.556 10.976 34.328 10.118 34.328 9.158C34.328 8.21 34.55 7.358 34.994 6.602C35.45 5.834 36.068 5.24 36.848 4.82C37.64 4.388 38.522 4.172 39.494 4.172C40.442 4.172 41.3 4.376 42.068 4.784C42.836 5.192 43.436 5.78 43.868 6.548C44.312 7.304 44.534 8.186 44.534 9.194ZM39.512 6.296C38.876 6.296 38.342 6.476 37.91 6.836C37.478 7.196 37.214 7.688 37.118 8.312H41.888C41.792 7.7 41.528 7.214 41.096 6.854C40.664 6.482 40.136 6.296 39.512 6.296ZM52.2894 4.172C53.4894 4.172 54.4554 4.532 55.1874 5.252C55.9314 5.972 56.3034 7.04 56.3034 8.456V14H53.4954V8.888C53.4954 8.12 53.3274 7.55 52.9914 7.178C52.6554 6.794 52.1694 6.602 51.5334 6.602C50.8254 6.602 50.2614 6.824 49.8414 7.268C49.4214 7.7 49.2114 8.348 49.2114 9.212V14H46.4034V4.316H49.0854V5.45C49.4574 5.042 49.9194 4.73 50.4714 4.514C51.0234 4.286 51.6294 4.172 52.2894 4.172ZM68.8182 0.643999V14H66.1362V12.884C65.4402 13.724 64.4322 14.144 63.1122 14.144C62.2002 14.144 61.3722 13.94 60.6282 13.532C59.8962 13.124 59.3202 12.542 58.9002 11.786C58.4802 11.03 58.2702 10.154 58.2702 9.158C58.2702 8.162 58.4802 7.286 58.9002 6.53C59.3202 5.774 59.8962 5.192 60.6282 4.784C61.3722 4.376 62.2002 4.172 63.1122 4.172C64.3482 4.172 65.3142 4.562 66.0102 5.342V0.643999H68.8182ZM63.5982 11.84C64.3062 11.84 64.8942 11.6 65.3622 11.12C65.8302 10.628 66.0642 9.974 66.0642 9.158C66.0642 8.342 65.8302 7.694 65.3622 7.214C64.8942 6.722 64.3062 6.476 63.5982 6.476C62.8782 6.476 62.2842 6.722 61.8162 7.214C61.3482 7.694 61.1142 8.342 61.1142 9.158C61.1142 9.974 61.3482 10.628 61.8162 11.12C62.2842 11.6 62.8782 11.84 63.5982 11.84ZM75.3231 4.172C76.8231 4.172 77.9751 4.532 78.7791 5.252C79.5831 5.96 79.9851 7.034 79.9851 8.474V14H77.3571V12.794C76.8291 13.694 75.8451 14.144 74.4051 14.144C73.6611 14.144 73.0131 14.018 72.4611 13.766C71.9211 13.514 71.5071 13.166 71.2191 12.722C70.9311 12.278 70.7871 11.774 70.7871 11.21C70.7871 10.31 71.1231 9.602 71.7951 9.086C72.4791 8.57 73.5291 8.312 74.9451 8.312H77.1771C77.1771 7.7 76.9911 7.232 76.6191 6.908C76.2471 6.572 75.6891 6.404 74.9451 6.404C74.4291 6.404 73.9191 6.488 73.4151 6.656C72.9231 6.812 72.5031 7.028 72.1551 7.304L71.1471 5.342C71.6751 4.97 72.3051 4.682 73.0371 4.478C73.7811 4.274 74.5431 4.172 75.3231 4.172ZM75.1071 12.254C75.5871 12.254 76.0131 12.146 76.3851 11.93C76.7571 11.702 77.0211 11.372 77.1771 10.94V9.95H75.2511C74.0991 9.95 73.5231 10.328 73.5231 11.084C73.5231 11.444 73.6611 11.732 73.9371 11.948C74.2251 12.152 74.6151 12.254 75.1071 12.254ZM85.2085 5.594C85.5445 5.126 85.9945 4.772 86.5585 4.532C87.1345 4.292 87.7945 4.172 88.5385 4.172V6.764C88.2265 6.74 88.0165 6.728 87.9085 6.728C87.1045 6.728 86.4745 6.956 86.0185 7.412C85.5625 7.856 85.3345 8.528 85.3345 9.428V14H82.5265V4.316H85.2085V5.594ZM100.154 4.316L95.7801 14.594C95.3361 15.71 94.7841 16.496 94.1241 16.952C93.4761 17.408 92.6901 17.636 91.7661 17.636C91.2621 17.636 90.7641 17.558 90.2721 17.402C89.7801 17.246 89.3781 17.03 89.0661 16.754L90.0921 14.756C90.3081 14.948 90.5541 15.098 90.8301 15.206C91.1181 15.314 91.4001 15.368 91.6761 15.368C92.0601 15.368 92.3721 15.272 92.6121 15.08C92.8521 14.9 93.0681 14.594 93.2601 14.162L93.2961 14.072L89.1021 4.316H92.0001L94.7181 10.886L97.4541 4.316H100.154Z" fill="url(#paint0_linear)"/>
<defs>
<linearGradient id="paint0_linear" x1="-13.4898" y1="-25" x2="146.273" y2="46.6465" gradientUnits="userSpaceOnUse">
<stop offset="0.0950906" stop-color="#FFC700"/>
<stop offset="1" stop-color="#FF007A"/>
</linearGradient>
</defs>
</svg>
