<svg width="42" height="14" viewBox="0 0 42 14" fill="none" xmlns="http://www.w3.org/2000/svg">
<path d="M8.522 13L6.092 9.49H5.948H3.41V13H0.494V0.399999H5.948C7.064 0.399999 8.03 0.585999 8.846 0.957999C9.674 1.33 10.31 1.858 10.754 2.542C11.198 3.226 11.42 4.036 11.42 4.972C11.42 5.908 11.192 6.718 10.736 7.402C10.292 8.074 9.656 8.59 8.828 8.95L11.654 13H8.522ZM8.468 4.972C8.468 4.264 8.24 3.724 7.784 3.352C7.328 2.968 6.662 2.776 5.786 2.776H3.41V7.168H5.786C6.662 7.168 7.328 6.976 7.784 6.592C8.24 6.208 8.468 5.668 8.468 4.972ZM17.3504 3.172C18.8504 3.172 20.0024 3.532 20.8064 4.252C21.6104 4.96 22.0124 6.034 22.0124 7.474V13H19.3844V11.794C18.8564 12.694 17.8724 13.144 16.4324 13.144C15.6884 13.144 15.0404 13.018 14.4884 12.766C13.9484 12.514 13.5344 12.166 13.2464 11.722C12.9584 11.278 12.8144 10.774 12.8144 10.21C12.8144 9.31 13.1504 8.602 13.8224 8.086C14.5064 7.57 15.5564 7.312 16.9724 7.312H19.2044C19.2044 6.7 19.0184 6.232 18.6464 5.908C18.2744 5.572 17.7164 5.404 16.9724 5.404C16.4564 5.404 15.9464 5.488 15.4424 5.656C14.9504 5.812 14.5304 6.028 14.1824 6.304L13.1744 4.342C13.7024 3.97 14.3324 3.682 15.0644 3.478C15.8084 3.274 16.5704 3.172 17.3504 3.172ZM17.1344 11.254C17.6144 11.254 18.0404 11.146 18.4124 10.93C18.7844 10.702 19.0484 10.372 19.2044 9.94V8.95H17.2784C16.1264 8.95 15.5504 9.328 15.5504 10.084C15.5504 10.444 15.6884 10.732 15.9644 10.948C16.2524 11.152 16.6424 11.254 17.1344 11.254ZM27.2358 4.594C27.5718 4.126 28.0218 3.772 28.5858 3.532C29.1618 3.292 29.8218 3.172 30.5658 3.172V5.764C30.2538 5.74 30.0438 5.728 29.9358 5.728C29.1318 5.728 28.5018 5.956 28.0458 6.412C27.5898 6.856 27.3618 7.528 27.3618 8.428V13H24.5538V3.316H27.2358V4.594ZM41.6336 8.194C41.6336 8.23 41.6156 8.482 41.5796 8.95H34.2536C34.3856 9.55 34.6976 10.024 35.1896 10.372C35.6816 10.72 36.2936 10.894 37.0256 10.894C37.5296 10.894 37.9736 10.822 38.3576 10.678C38.7536 10.522 39.1196 10.282 39.4556 9.958L40.9496 11.578C40.0376 12.622 38.7056 13.144 36.9536 13.144C35.8616 13.144 34.8956 12.934 34.0556 12.514C33.2156 12.082 32.5676 11.488 32.1116 10.732C31.6556 9.976 31.4276 9.118 31.4276 8.158C31.4276 7.21 31.6496 6.358 32.0936 5.602C32.5496 4.834 33.1676 4.24 33.9476 3.82C34.7396 3.388 35.6216 3.172 36.5936 3.172C37.5416 3.172 38.3996 3.376 39.1676 3.784C39.9356 4.192 40.5356 4.78 40.9676 5.548C41.4116 6.304 41.6336 7.186 41.6336 8.194ZM36.6116 5.296C35.9756 5.296 35.4416 5.476 35.0096 5.836C34.5776 6.196 34.3136 6.688 34.2176 7.312H38.9876C38.8916 6.7 38.6276 6.214 38.1956 5.854C37.7636 5.482 37.2356 5.296 36.6116 5.296Z" fill="url(#paint0_linear)"/>
<defs>
<linearGradient id="paint0_linear" x1="-11.7442" y1="-16.5" x2="67.883" y2="-9.51214" gradientUnits="userSpaceOnUse">
<stop stop-color="#FF007A"/>
<stop offset="0.789842" stop-color="#007AFF"/>
</linearGradient>
</defs>
</svg>
