<svg width="106" height="14" viewBox="0 0 106 14" fill="none" xmlns="http://www.w3.org/2000/svg">
<path d="M3.302 7.798C3.302 8.59 3.536 9.226 4.004 9.706C4.472 10.186 5.066 10.426 5.786 10.426C6.494 10.426 7.064 10.192 7.496 9.724C7.94 9.244 8.162 8.602 8.162 7.798V0.381999H11.456V7.798C11.456 8.89 11.222 9.85 10.754 10.678C10.298 11.494 9.638 12.124 8.774 12.568C7.922 13.012 6.92 13.234 5.768 13.234C4.616 13.234 3.602 13.012 2.726 12.568C1.862 12.124 1.19 11.494 0.71 10.678C0.242 9.85 0.00800003 8.89 0.00800003 7.798V0.381999H3.302V7.798ZM20.1324 3.136C21.2004 3.136 22.0524 3.472 22.6884 4.144C23.3364 4.816 23.6604 5.722 23.6604 6.862V13H20.4744V7.78C20.4744 7.228 20.3244 6.796 20.0244 6.484C19.7244 6.16 19.3224 5.998 18.8184 5.998C18.2904 6.01 17.8524 6.184 17.5044 6.52C17.1684 6.856 16.9704 7.3 16.9104 7.852V13H13.7064V3.262H16.9104V4.846C17.2584 4.282 17.7024 3.856 18.2424 3.568C18.7944 3.28 19.4244 3.136 20.1324 3.136ZM32.1173 6.808C31.6613 6.136 31.0253 5.8 30.2093 5.8C29.6333 5.8 29.1653 6.022 28.8053 6.466C28.4453 6.898 28.2653 7.462 28.2653 8.158C28.2653 8.866 28.4453 9.436 28.8053 9.868C29.1653 10.3 29.6333 10.516 30.2093 10.516C31.0973 10.516 31.7333 10.15 32.1173 9.418L34.4753 10.768C34.0913 11.512 33.5153 12.088 32.7473 12.496C31.9793 12.904 31.0793 13.108 30.0473 13.108C29.0513 13.108 28.1753 12.904 27.4193 12.496C26.6633 12.088 26.0753 11.512 25.6553 10.768C25.2473 10.024 25.0433 9.16 25.0433 8.176C25.0433 7.18 25.2533 6.304 25.6733 5.548C26.0933 4.78 26.6813 4.192 27.4373 3.784C28.2053 3.364 29.0873 3.154 30.0833 3.154C31.0553 3.154 31.9193 3.358 32.6753 3.766C33.4313 4.162 34.0193 4.726 34.4393 5.458L32.1173 6.808ZM40.1971 3.154C41.2531 3.154 42.1831 3.364 42.9871 3.784C43.7911 4.192 44.4151 4.774 44.8591 5.53C45.3031 6.274 45.5251 7.138 45.5251 8.122C45.5251 9.118 45.3031 9.994 44.8591 10.75C44.4151 11.494 43.7911 12.076 42.9871 12.496C42.1831 12.904 41.2531 13.108 40.1971 13.108C39.1411 13.108 38.2111 12.904 37.4071 12.496C36.6031 12.076 35.9791 11.494 35.5351 10.75C35.1031 9.994 34.8871 9.118 34.8871 8.122C34.8871 7.138 35.1031 6.274 35.5351 5.53C35.9791 4.774 36.6031 4.192 37.4071 3.784C38.2111 3.364 39.1411 3.154 40.1971 3.154ZM40.1971 5.746C39.5731 5.746 39.0691 5.968 38.6851 6.412C38.3011 6.856 38.1091 7.438 38.1091 8.158C38.1091 8.89 38.3011 9.478 38.6851 9.922C39.0691 10.366 39.5731 10.588 40.1971 10.588C40.8331 10.588 41.3431 10.366 41.7271 9.922C42.1111 9.478 42.3031 8.89 42.3031 8.158C42.3031 7.438 42.1051 6.856 41.7091 6.412C41.3251 5.968 40.8211 5.746 40.1971 5.746ZM60.1536 3.136C61.2096 3.136 62.0556 3.472 62.6916 4.144C63.3276 4.816 63.6456 5.722 63.6456 6.862V13H60.4416V7.78C60.4416 7.228 60.2976 6.796 60.0096 6.484C59.7216 6.16 59.3316 5.998 58.8396 5.998C58.2756 6.01 57.8256 6.22 57.4896 6.628C57.1656 7.024 57.0036 7.546 57.0036 8.194V13H53.7996V7.78C53.7996 7.228 53.6556 6.796 53.3676 6.484C53.0796 6.16 52.6896 5.998 52.1976 5.998C51.6336 6.01 51.1836 6.22 50.8476 6.628C50.5116 7.024 50.3436 7.546 50.3436 8.194V13H47.1576V3.262H50.3436V4.864C50.6796 4.3 51.1116 3.874 51.6396 3.586C52.1796 3.286 52.8036 3.136 53.5116 3.136C54.3036 3.136 54.9816 3.328 55.5456 3.712C56.1096 4.096 56.5116 4.63 56.7516 5.314C57.0636 4.594 57.5076 4.054 58.0836 3.694C58.6716 3.322 59.3616 3.136 60.1536 3.136ZM78.8216 3.136C79.8776 3.136 80.7236 3.472 81.3596 4.144C81.9956 4.816 82.3136 5.722 82.3136 6.862V13H79.1096V7.78C79.1096 7.228 78.9656 6.796 78.6776 6.484C78.3896 6.16 77.9996 5.998 77.5076 5.998C76.9436 6.01 76.4936 6.22 76.1576 6.628C75.8336 7.024 75.6716 7.546 75.6716 8.194V13H72.4676V7.78C72.4676 7.228 72.3236 6.796 72.0356 6.484C71.7476 6.16 71.3576 5.998 70.8656 5.998C70.3016 6.01 69.8516 6.22 69.5156 6.628C69.1796 7.024 69.0116 7.546 69.0116 8.194V13H65.8256V3.262H69.0116V4.864C69.3476 4.3 69.7796 3.874 70.3076 3.586C70.8476 3.286 71.4716 3.136 72.1796 3.136C72.9716 3.136 73.6496 3.328 74.2136 3.712C74.7776 4.096 75.1796 4.63 75.4196 5.314C75.7316 4.594 76.1756 4.054 76.7516 3.694C77.3396 3.322 78.0296 3.136 78.8216 3.136ZM89.0115 3.154C90.0675 3.154 90.9975 3.364 91.8015 3.784C92.6055 4.192 93.2295 4.774 93.6735 5.53C94.1175 6.274 94.3395 7.138 94.3395 8.122C94.3395 9.118 94.1175 9.994 93.6735 10.75C93.2295 11.494 92.6055 12.076 91.8015 12.496C90.9975 12.904 90.0675 13.108 89.0115 13.108C87.9555 13.108 87.0255 12.904 86.2215 12.496C85.4175 12.076 84.7935 11.494 84.3495 10.75C83.9175 9.994 83.7015 9.118 83.7015 8.122C83.7015 7.138 83.9175 6.274 84.3495 5.53C84.7935 4.774 85.4175 4.192 86.2215 3.784C87.0255 3.364 87.9555 3.154 89.0115 3.154ZM89.0115 5.746C88.3875 5.746 87.8835 5.968 87.4995 6.412C87.1155 6.856 86.9235 7.438 86.9235 8.158C86.9235 8.89 87.1155 9.478 87.4995 9.922C87.8835 10.366 88.3875 10.588 89.0115 10.588C89.6475 10.588 90.1575 10.366 90.5415 9.922C90.9255 9.478 91.1175 8.89 91.1175 8.158C91.1175 7.438 90.9195 6.856 90.5235 6.412C90.1395 5.968 89.6355 5.746 89.0115 5.746ZM102.398 3.136C103.466 3.136 104.318 3.472 104.954 4.144C105.602 4.816 105.926 5.722 105.926 6.862V13H102.74V7.78C102.74 7.228 102.59 6.796 102.29 6.484C101.99 6.16 101.588 5.998 101.084 5.998C100.556 6.01 100.118 6.184 99.77 6.52C99.434 6.856 99.236 7.3 99.176 7.852V13H95.972V3.262H99.176V4.846C99.524 4.282 99.968 3.856 100.508 3.568C101.06 3.28 101.69 3.136 102.398 3.136Z" fill="url(#paint0_linear)"/>
<defs>
<linearGradient id="paint0_linear" x1="-8.99999" y1="-13.5" x2="115.94" y2="36.837" gradientUnits="userSpaceOnUse">
<stop offset="0.0950906" stop-color="#007AFF"/>
<stop offset="0.967223" stop-color="#00DF74"/>
</linearGradient>
</defs>
</svg>
