<svg width="28" height="32" viewBox="0 0 28 32" fill="none" xmlns="http://www.w3.org/2000/svg">
<path d="M10.9991 0C10.7339 0 10.4795 0.105357 10.292 0.292893C10.1044 0.48043 9.99907 0.734784 9.99907 1C9.99907 1.26522 10.1044 1.51957 10.292 1.70711C10.4795 1.89464 10.7339 2 10.9991 2H11.9991V4.14C8.49597 4.64632 5.31461 6.46055 3.09507 9.21766C0.875531 11.9748 -0.217476 15.4702 0.0359639 19.0006C0.289403 22.531 1.87048 25.8344 4.46108 28.2462C7.05169 30.6581 10.4596 31.9993 13.9991 32C16.6829 31.9999 19.3101 31.2284 21.5678 29.7773C23.8256 28.3263 25.6186 26.2569 26.7335 23.8156C27.8483 21.3743 28.238 18.664 27.856 16.0075C27.4741 13.351 26.3366 10.8603 24.5791 8.832C24.5879 8.82414 24.5965 8.81614 24.6051 8.808L25.3131 8.1L26.0191 8.808C26.1113 8.90351 26.2217 8.97969 26.3437 9.0321C26.4657 9.08451 26.5969 9.1121 26.7297 9.11325C26.8624 9.1144 26.9941 9.0891 27.117 9.03882C27.2399 8.98854 27.3516 8.91429 27.4455 8.82039C27.5394 8.7265 27.6136 8.61485 27.6639 8.49195C27.7142 8.36906 27.7395 8.23738 27.7383 8.1046C27.7372 7.97182 27.7096 7.8406 27.6572 7.7186C27.6048 7.59659 27.5286 7.48625 27.4331 7.394L24.6051 4.564C24.5128 4.46849 24.4025 4.39231 24.2805 4.3399C24.1585 4.28749 24.0272 4.2599 23.8945 4.25875C23.7617 4.2576 23.63 4.2829 23.5071 4.33318C23.3842 4.38346 23.2726 4.45771 23.1787 4.55161C23.0848 4.6455 23.0105 4.75715 22.9602 4.88005C22.91 5.00294 22.8847 5.13462 22.8858 5.2674C22.887 5.40018 22.9146 5.5314 22.967 5.6534C23.0194 5.77541 23.0956 5.88575 23.1911 5.978L23.8991 6.686L23.1911 7.394C23.183 7.40191 23.175 7.40991 23.1671 7.418C21.1424 5.65954 18.6537 4.52212 15.9991 4.142V2H16.9991C17.2643 2 17.5186 1.89464 17.7062 1.70711C17.8937 1.51957 17.9991 1.26522 17.9991 1C17.9991 0.734784 17.8937 0.48043 17.7062 0.292893C17.5186 0.105357 17.2643 0 16.9991 0L10.9991 0ZM14.9991 11.2V18C14.9991 18.2652 14.8937 18.5196 14.7062 18.7071C14.5186 18.8946 14.2643 19 13.9991 19H6.99907C6.73385 19 6.4795 18.8946 6.29196 18.7071C6.10442 18.5196 5.99907 18.2652 5.99907 18C5.99907 17.7348 6.10442 17.4804 6.29196 17.2929C6.4795 17.1054 6.73385 17 6.99907 17H12.9991V11.2C12.9991 10.9348 13.1044 10.6804 13.292 10.4929C13.4795 10.3054 13.7339 10.2 13.9991 10.2C14.2643 10.2 14.5186 10.3054 14.7062 10.4929C14.8937 10.6804 14.9991 10.9348 14.9991 11.2Z" fill="#BDBDBD"/>
</svg>
