<svg width="32" height="32" viewBox="0 0 32 32" fill="none" xmlns="http://www.w3.org/2000/svg">
<path d="M31.5732 13.5681L27.9999 12.5014C27.7528 11.6388 27.413 10.8055 26.9865 10.0161L28.7359 6.74146C28.8015 6.61786 28.8255 6.47638 28.8044 6.33803C28.7833 6.19968 28.7181 6.07184 28.6185 5.97347L26.0692 3.41348C25.9708 3.31393 25.843 3.24875 25.7046 3.22761C25.5663 3.20647 25.4248 3.23051 25.3012 3.29615L22.0479 5.0348C21.2507 4.58751 20.4064 4.22978 19.5306 3.96814L18.4639 0.437495C18.4188 0.307379 18.3335 0.194935 18.2205 0.116346C18.1074 0.0377575 17.9723 -0.00292184 17.8346 0.000163379H14.2293C14.0907 0.000808254 13.9561 0.04564 13.8448 0.128134C13.7335 0.210628 13.6515 0.32648 13.6106 0.458828L12.5439 3.97881C11.6608 4.23905 10.8093 4.59681 10.0053 5.04547L6.8053 3.31748C6.68169 3.25184 6.54022 3.22781 6.40187 3.24894C6.26352 3.27008 6.13567 3.33526 6.0373 3.43481L3.44532 5.9628C3.34576 6.06117 3.28058 6.18902 3.25945 6.32736C3.23831 6.46571 3.26234 6.60719 3.32798 6.7308L5.05597 9.93078C4.60804 10.7314 4.2503 11.5793 3.98931 12.4588L0.458664 13.5254C0.326316 13.5663 0.210465 13.6483 0.127971 13.7596C0.0454766 13.8709 0.000644875 14.0056 0 14.1441V17.7494C0.000644875 17.8879 0.0454766 18.0226 0.127971 18.1339C0.210465 18.2452 0.326316 18.3272 0.458664 18.3681L4.01065 19.4347C4.27448 20.2996 4.63216 21.133 5.07731 21.9201L3.32798 25.2694C3.26234 25.393 3.23831 25.5345 3.25945 25.6728C3.28058 25.8111 3.34576 25.939 3.44532 26.0374L5.99464 28.5867C6.09301 28.6862 6.22085 28.7514 6.3592 28.7726C6.49755 28.7937 6.63903 28.7697 6.76263 28.704L10.0586 26.944C10.8383 27.3647 11.6608 27.7009 12.5119 27.9467L13.5786 31.5413C13.6195 31.6737 13.7015 31.7895 13.8128 31.872C13.9241 31.9545 14.0587 31.9994 14.1973 32H17.8026C17.9411 31.9994 18.0758 31.9545 18.1871 31.872C18.2983 31.7895 18.3804 31.6737 18.4212 31.5413L19.4879 27.936C20.3318 27.6889 21.1471 27.3528 21.9199 26.9334L25.2372 28.704C25.3608 28.7697 25.5023 28.7937 25.6406 28.7726C25.779 28.7514 25.9068 28.6862 26.0052 28.5867L28.5545 26.0374C28.6541 25.939 28.7193 25.8111 28.7404 25.6728C28.7615 25.5345 28.7375 25.393 28.6719 25.2694L26.9012 21.9627C27.325 21.1869 27.6647 20.3681 27.9145 19.5201L31.5092 18.4534C31.6415 18.4125 31.7574 18.3305 31.8399 18.2192C31.9224 18.1079 31.9672 17.9733 31.9678 17.8347V14.1974C31.9741 14.0648 31.9397 13.9334 31.8691 13.8209C31.7986 13.7084 31.6953 13.6202 31.5732 13.5681V13.5681ZM16.0319 21.8667C14.8716 21.8667 13.7374 21.5226 12.7726 20.878C11.8078 20.2334 11.0559 19.3171 10.6119 18.2451C10.1678 17.1732 10.0516 15.9936 10.278 14.8556C10.5044 13.7175 11.0631 12.6722 11.8836 11.8517C12.704 11.0313 13.7494 10.4725 14.8874 10.2462C16.0254 10.0198 17.205 10.136 18.277 10.58C19.349 11.024 20.2652 11.776 20.9098 12.7408C21.5545 13.7055 21.8986 14.8398 21.8986 16.0001C21.8986 17.556 21.2805 19.0482 20.1803 20.1484C19.0801 21.2486 17.5878 21.8667 16.0319 21.8667V21.8667Z" fill="url(#paint0_linear)"/>
<defs>
<linearGradient id="paint0_linear" x1="4" y1="4" x2="22" y2="32" gradientUnits="userSpaceOnUse">
<stop stop-color="#007AFF"/>
<stop offset="1" stop-color="#CA21F4"/>
</linearGradient>
</defs>
</svg>
