<svg width="32" height="32" viewBox="0 0 32 32" fill="none" xmlns="http://www.w3.org/2000/svg">
<path d="M20.1332 1.74046C19.5948 1.18952 18.9517 0.75174 18.2418 0.452854C17.5318 0.153967 16.7693 0 15.999 0C15.2287 0 14.4662 0.153967 13.7562 0.452854C13.0463 0.75174 12.4032 1.18952 11.8648 1.74046L10.6208 3.01651L8.84073 2.9945C8.0702 2.98539 7.30562 3.13043 6.59197 3.4211C5.87831 3.71177 5.22997 4.1422 4.68509 4.68709C4.1402 5.23197 3.70977 5.88031 3.4191 6.59397C3.12843 7.30762 2.98339 8.0722 2.9925 8.84273L3.01251 10.6228L1.74046 11.8668C1.18952 12.4052 0.75174 13.0483 0.452854 13.7582C0.153967 14.4682 0 15.2307 0 16.001C0 16.7713 0.153967 17.5338 0.452854 18.2438C0.75174 18.9537 1.18952 19.5968 1.74046 20.1352L3.01451 21.3792L2.9925 23.1593C2.98339 23.9298 3.12843 24.6944 3.4191 25.408C3.70977 26.1217 4.1402 26.77 4.68509 27.3149C5.22997 27.8598 5.87831 28.2902 6.59197 28.5809C7.30562 28.8716 8.0702 29.0166 8.84073 29.0075L10.6208 28.9875L11.8648 30.2595C12.4032 30.8105 13.0463 31.2483 13.7562 31.5471C14.4662 31.846 15.2287 32 15.999 32C16.7693 32 17.5318 31.846 18.2418 31.5471C18.9517 31.2483 19.5948 30.8105 20.1332 30.2595L21.3772 28.9855L23.1573 29.0075C23.9278 29.0166 24.6924 28.8716 25.406 28.5809C26.1197 28.2902 26.768 27.8598 27.3129 27.3149C27.8578 26.77 28.2882 26.1217 28.5789 25.408C28.8696 24.6944 29.0146 23.9298 29.0055 23.1593L28.9855 21.3792L30.2575 20.1352C30.8085 19.5968 31.2463 18.9537 31.5451 18.2438C31.844 17.5338 31.998 16.7713 31.998 16.001C31.998 15.2307 31.844 14.4682 31.5451 13.7582C31.2463 13.0483 30.8085 12.4052 30.2575 11.8668L28.9835 10.6228L29.0055 8.84273C29.0146 8.0722 28.8696 7.30762 28.5789 6.59397C28.2882 5.88031 27.8578 5.23197 27.3129 4.68709C26.768 4.1422 26.1197 3.71177 25.406 3.4211C24.6924 3.13043 23.9278 2.98539 23.1573 2.9945L21.3772 3.01451L20.1332 1.74246V1.74046ZM20.7072 13.7089L14.707 19.7091C14.6141 19.8023 14.5037 19.8762 14.3822 19.9266C14.2607 19.977 14.1305 20.0029 13.9989 20.0029C13.8674 20.0029 13.7371 19.977 13.6156 19.9266C13.4941 19.8762 13.3838 19.8023 13.2909 19.7091L10.2908 16.709C10.1978 16.616 10.124 16.5057 10.0737 16.3842C10.0234 16.2627 9.99751 16.1325 9.99751 16.001C9.99751 15.8695 10.0234 15.7393 10.0737 15.6178C10.124 15.4963 10.1978 15.386 10.2908 15.293C10.3838 15.2 10.4941 15.1262 10.6156 15.0759C10.7371 15.0256 10.8673 14.9997 10.9988 14.9997C11.1303 14.9997 11.2605 15.0256 11.382 15.0759C11.5035 15.1262 11.6139 15.2 11.7068 15.293L13.9989 17.5871L19.2911 12.2929C19.4789 12.1051 19.7336 11.9996 19.9992 11.9996C20.2647 11.9996 20.5194 12.1051 20.7072 12.2929C20.895 12.4806 21.0005 12.7353 21.0005 13.0009C21.0005 13.2664 20.895 13.5211 20.7072 13.7089V13.7089Z" fill="url(#paint0_linear)"/>
<defs>
<linearGradient id="paint0_linear" x1="1.49745e-06" y1="-12" x2="23.5" y2="50" gradientUnits="userSpaceOnUse">
<stop offset="0.279997" stop-color="#00DF74"/>
<stop offset="1" stop-color="#007AFF"/>
</linearGradient>
</defs>
</svg>
